<svg width="65" height="65" viewBox="0 0 65 65" fill="none" xmlns="http://www.w3.org/2000/svg">
<g clip-path="url(#clip0)">
<path d="M59.4802 44.327C59.4802 48.0594 58.4341 51.0809 57.1544 51.0809C55.8696 51.0809 54.8286 48.0594 54.8286 44.327C54.8286 40.5945 55.8696 37.568 57.1544 37.568C58.4341 37.568 59.4802 40.5996 59.4802 44.327Z" fill="#2F2F2F"/>
<path d="M56.144 50.4156C56.144 50.4156 56.7636 51.4059 57.4339 51.741C58.9522 52.4977 61.0647 52.2184 62.3343 50.4918L61.6538 46.3785L57.3577 47.1961L56.144 50.4156Z" fill="#2F2F2F"/>
<path d="M12.0405 52.8836C12.0405 56.8699 10.6339 60.1047 8.90733 60.1047C7.17568 60.1047 5.76904 56.8699 5.76904 52.8836C5.76904 48.8922 7.17568 45.6574 8.90733 45.6574C10.6339 45.6625 12.0405 48.8922 12.0405 52.8836Z" fill="#2F2F2F"/>
<path d="M7.54102 59.3988C7.54102 59.3988 8.37383 60.4602 9.28789 60.8156C11.3344 61.623 14.1781 61.3234 15.8895 59.4852L14.9703 55.0875L9.18125 55.9609L7.54102 59.3988Z" fill="#2F2F2F"/>
<path d="M17.7481 52.8836C17.7481 56.8699 16.3414 60.1047 14.6148 60.1047C12.8832 60.1047 11.4766 56.8699 11.4766 52.8836C11.4766 48.8922 12.8832 45.6574 14.6148 45.6574C16.3414 45.6625 17.7481 48.8922 17.7481 52.8836Z" fill="#2F2F2F"/>
<path d="M46.0991 52.8836C46.0991 56.8699 44.6925 60.1047 42.9659 60.1047C41.2343 60.1047 39.8276 56.8699 39.8276 52.8836C39.8276 48.8922 41.2343 45.6574 42.9659 45.6574C44.6925 45.6625 46.0991 48.8922 46.0991 52.8836Z" fill="#2F2F2F"/>
<path d="M41.5996 59.3988C41.5996 59.3988 42.4324 60.4602 43.3465 60.8156C45.393 61.623 48.2367 61.3234 49.9531 59.4852L49.034 55.0875L43.2449 55.9609L41.5996 59.3988Z" fill="#2F2F2F"/>
<path d="M57.8904 6.20039H8.79004C3.69668 6.20039 0.0810547 9.31328 0.0810547 13.8938V46.5664C0.0810547 51.6547 4.20957 55.7832 9.29785 55.7832H37.5678C44.992 55.7832 47.4193 54.8234 51.9592 51.8324C56.626 48.7602 64.9998 43.682 64.9998 39.518V13.8481C64.9998 8.75977 62.9787 6.20039 57.8904 6.20039Z" fill="#FCC21B"/>
<path d="M-0.192871 41.6762H43.6466V56.6211H-0.192871V41.6762Z" fill="#ED6C30"/>
<path d="M43.6465 59.7137L66.686 44.657V27.8535L43.6465 41.6762V59.7137Z" fill="#ED6C30"/>
<path d="M40.681 34.1402C40.681 35.8465 39.2946 37.2379 37.5833 37.2379H7.82549C6.11924 37.2379 4.73291 35.8465 4.73291 34.1402V14.4676C4.73291 12.7613 6.11924 11.3699 7.82549 11.3699H37.5782C39.2896 11.3699 40.6759 12.7613 40.6759 14.4676V34.1402H40.681Z" fill="#40C0E7"/>
<path d="M3.35693 10.1766H42.4585V19.2562H3.35693V10.1766Z" fill="#2F2F2F"/>
<path d="M10.2783 13.1828H35.5318V17.2961H10.2783V13.1828Z" fill="white"/>
<path d="M55.0571 24.8676C55.0571 26.1879 54.2853 27.691 53.2747 28.2648L49.5118 30.4027C48.1204 31.1848 46.9067 30.4891 46.9067 28.7777V14.8535C46.9067 13.1473 48.1255 11.7609 49.5118 11.7609H53.2747C54.2853 11.7609 55.0571 12.8324 55.0571 14.1426V24.8676ZM61.1103 13.5992C61.1103 12.5988 60.7396 11.7863 60.2622 11.7863H58.5661C57.9771 11.7863 57.4692 12.7562 57.4692 13.9445V23.6234C57.4692 24.8117 57.9771 25.4719 58.5661 25.1012L60.2622 24.0652C60.7396 23.7707 61.1103 22.7348 61.1103 21.7344V13.5992Z" fill="#40C0E7"/>
<path d="M8.16543 51.1977C10.0922 51.1977 11.6541 49.638 11.6541 47.7141C11.6541 45.7901 10.0922 44.2305 8.16543 44.2305C6.23869 44.2305 4.67676 45.7901 4.67676 47.7141C4.67676 49.638 6.23869 51.1977 8.16543 51.1977Z" fill="white"/>
<path d="M40.1829 47.7141C40.1829 49.6387 38.6188 51.1977 36.6892 51.1977C34.7696 51.1977 33.2056 49.6387 33.2056 47.7141C33.2056 45.7844 34.7645 44.2305 36.6892 44.2305C38.6188 44.2305 40.1829 45.7844 40.1829 47.7141Z" fill="white"/>
<path d="M51.8071 52.8836C51.8071 56.8699 50.4005 60.1047 48.6739 60.1047C46.9423 60.1047 45.5356 56.8699 45.5356 52.8836C45.5356 48.8922 46.9423 45.6574 48.6739 45.6574C50.4005 45.6625 51.8071 48.8922 51.8071 52.8836Z" fill="#2F2F2F"/>
<path d="M63.7101 44.327C63.7101 48.0594 62.6691 51.0809 61.3844 51.0809C60.0996 51.0809 59.0586 48.0594 59.0586 44.327C59.0586 40.5945 60.0996 37.568 61.3844 37.568C62.6742 37.568 63.7101 40.5996 63.7101 44.327Z" fill="#2F2F2F"/>
</g>
<defs>
<clipPath id="clip0">
<rect width="65" height="65" fill="white"/>
</clipPath>
</defs>
</svg>
